<?xml version="1.0" encoding="UTF-8"?>
<!DOCTYPE svg PUBLIC "-//W3C//DTD SVG 1.1//EN" "http://www.w3.org/Graphics/SVG/1.1/DTD/svg11.dtd">
<svg xmlns="http://www.w3.org/2000/svg" version="1.1" width="1539px" height="1215px" style="shape-rendering:geometricPrecision; text-rendering:geometricPrecision; image-rendering:optimizeQuality; fill-rule:evenodd; clip-rule:evenodd" xmlns:xlink="http://www.w3.org/1999/xlink">
<g><path style="opacity:1" fill="#f2f2f2" d="M 1268.5,6.5 C 1274.59,6.1392 1280.59,6.6392 1286.5,8C 1291.64,12.4325 1295.14,17.9325 1297,24.5C 1374.28,222.722 1451.28,421.055 1528,619.5C 1532.37,635.402 1527.87,647.902 1514.5,657C 1377.12,702.79 1241.12,752.123 1106.5,805C 1044.9,831.132 984.904,860.465 926.5,893C 910.663,898.388 898.163,894.221 889,880.5C 838.294,701.7 772.627,528.7 692,361.5C 678.667,335.5 665.333,309.5 652,283.5C 645.633,265.742 650.8,252.576 667.5,244C 868.052,165.1 1068.39,85.9332 1268.5,6.5 Z"/></g>
<g><path style="opacity:1" fill="#000000" d="M 1271.5,19.5 C 1274.45,19.2229 1277.28,19.5562 1280,20.5C 1284.7,32.2424 1289.7,43.909 1295,55.5C 1367.81,243.601 1440.81,431.601 1514,619.5C 1518.06,628.34 1516.9,636.34 1510.5,643.5C 1434.17,670.333 1357.83,697.167 1281.5,724C 1228.17,743.167 1175.17,763.167 1122.5,784C 1052.43,812.37 984.428,845.036 918.5,882C 909.587,883.294 903.42,879.794 900,871.5C 841.33,664.807 762.664,466.14 664,275.5C 663.333,272.167 663.333,268.833 664,265.5C 666.5,261.667 669.667,258.5 673.5,256C 873.052,177.433 1072.39,98.5999 1271.5,19.5 Z"/></g>
<g><path style="opacity:1" fill="#f3f3f3" d="M 1266.5,66.5 C 1269.46,71.529 1271.96,76.8624 1274,82.5C 1337.03,244.588 1399.86,406.755 1462.5,569C 1462.17,569.5 1461.83,570 1461.5,570.5C 1413.73,523.216 1363.73,478.716 1311.5,437C 1239.58,381.035 1159.92,339.201 1072.5,311.5C 1093.36,277.106 1116.19,244.106 1141,212.5C 1181.55,162.782 1223.38,114.116 1266.5,66.5 Z"/></g>
<g><path style="opacity:1" fill="#f3f3f3" d="M 910.5,789.5 C 909.833,791.833 909.167,794.167 908.5,796.5C 866.135,658.833 815.301,524.833 756,394.5C 738.583,359.998 721.416,325.331 704.5,290.5C 793.458,292.851 881.792,301.684 969.5,317C 989.071,320.56 1008.4,325.06 1027.5,330.5C 1005.71,370.401 987.541,411.734 973,454.5C 950.405,524.486 934.072,595.82 924,668.5C 919.252,708.819 914.752,749.152 910.5,789.5 Z"/></g>
<g><path style="opacity:1" fill="#767676" d="M 910.5,789.5 C 910.816,792.978 910.316,796.312 909,799.5C 908.517,798.552 908.351,797.552 908.5,796.5C 909.167,794.167 909.833,791.833 910.5,789.5 Z"/></g>
<g><path style="opacity:1" fill="#f1f1f1" d="M 287.5,899.5 C 314.32,896.748 339.987,900.915 364.5,912C 385.794,922.644 405.461,935.644 423.5,951C 460,983.5 494.5,1018 527,1054.5C 545.892,1074.06 565.392,1092.89 585.5,1111C 600.139,1123.33 616.139,1133.66 633.5,1142C 647.046,1147.56 660.713,1147.89 674.5,1143C 697.426,1132.44 717.259,1117.6 734,1098.5C 762.285,1064.6 787.619,1028.6 810,990.5C 824.733,966.092 839.066,941.426 853,916.5C 862.94,902.237 876.107,898.404 892.5,905C 905.738,915.088 909.238,927.921 903,943.5C 877.172,989.168 849.839,1033.83 821,1077.5C 797.014,1113.25 768.514,1145.09 735.5,1173C 686.759,1208.4 636.426,1210.73 584.5,1180C 554.598,1158.45 526.765,1134.28 501,1107.5C 484.301,1090.47 467.967,1073.14 452,1055.5C 447.159,1117.7 416.326,1161.54 359.5,1187C 304.927,1206.35 254.927,1198.35 209.5,1163C 177.526,1135.55 160.026,1100.72 157,1058.5C 122.796,1100.7 90.1293,1144.03 59,1188.5C 48.9027,1200.72 36.4027,1203.89 21.5,1198C 8.21699,1188.48 4.38365,1175.98 10,1160.5C 48.9474,1103.3 91.2807,1048.64 137,996.5C 157.704,973.785 180.204,953.285 204.5,935C 229.406,916.543 257.073,904.709 287.5,899.5 Z M 293.5,955.5 C 343.031,953.91 376.198,976.243 393,1022.5C 401.784,1058.2 393.618,1089.37 368.5,1116C 334.78,1144.95 298.113,1149.29 258.5,1129C 225.42,1107.67 210.253,1077.17 213,1037.5C 218.635,1001.88 237.802,976.717 270.5,962C 278.092,959.074 285.759,956.907 293.5,955.5 Z"/></g>
<g><path style="opacity:1" fill="#010101" d="M 288.5,912.5 C 322.723,909.722 354.057,917.889 382.5,937C 401.365,950.192 419.365,964.526 436.5,980C 474.863,1018.7 512.863,1057.7 550.5,1097C 568.716,1114.89 588.383,1130.89 609.5,1145C 644.171,1165.95 677.504,1163.95 709.5,1139C 725.964,1126.2 740.797,1111.7 754,1095.5C 776.392,1067.06 797.058,1037.39 816,1006.5C 832.919,978.331 849.585,949.998 866,921.5C 873.587,912.535 881.587,912.202 890,920.5C 893.699,928.178 893.033,935.511 888,942.5C 862.422,988.005 835.088,1032.34 806,1075.5C 784.798,1107.05 759.631,1135.21 730.5,1160C 686.541,1194.56 640.541,1197.56 592.5,1169C 574.593,1156.87 557.593,1143.54 541.5,1129C 506.304,1093.47 471.47,1057.64 437,1021.5C 444.8,1071.17 430.966,1113.67 395.5,1149C 357.787,1181.18 314.787,1191.18 266.5,1179C 222.561,1164.73 192.727,1135.89 177,1092.5C 169.932,1069.14 168.265,1045.48 172,1021.5C 127.527,1072.15 86.1936,1125.15 48,1180.5C 40.0072,1189.39 31.6739,1189.72 23,1181.5C 19.6667,1175.83 19.6667,1170.17 23,1164.5C 47.1789,1130.81 71.8455,1097.48 97,1064.5C 125.162,1027.41 156.662,993.247 191.5,962C 210.649,945.871 231.649,932.538 254.5,922C 265.692,917.878 277.026,914.711 288.5,912.5 Z M 293.5,955.5 C 285.759,956.907 278.092,959.074 270.5,962C 237.802,976.717 218.635,1001.88 213,1037.5C 210.253,1077.17 225.42,1107.67 258.5,1129C 298.113,1149.29 334.78,1144.95 368.5,1116C 393.618,1089.37 401.784,1058.2 393,1022.5C 376.198,976.243 343.031,953.91 293.5,955.5 Z"/></g>
<g><path style="opacity:1" fill="#f1f1f1" d="M 290.5,942.5 C 336.371,939.352 371.538,957.018 396,995.5C 414,1030.83 414,1066.17 396,1101.5C 368.551,1144.13 329.718,1160.97 279.5,1152C 234.632,1138.47 208.132,1108.63 200,1062.5C 196.066,1016.2 213.566,980.704 252.5,956C 264.613,949.576 277.279,945.076 290.5,942.5 Z M 293.5,955.5 C 285.759,956.907 278.092,959.074 270.5,962C 237.802,976.717 218.635,1001.88 213,1037.5C 210.253,1077.17 225.42,1107.67 258.5,1129C 298.113,1149.29 334.78,1144.95 368.5,1116C 393.618,1089.37 401.784,1058.2 393,1022.5C 376.198,976.243 343.031,953.91 293.5,955.5 Z"/></g>
</svg>
