<?xml version="1.0" encoding="UTF-8"?>
<!DOCTYPE svg PUBLIC "-//W3C//DTD SVG 1.1//EN" "http://www.w3.org/Graphics/SVG/1.1/DTD/svg11.dtd">
<svg xmlns="http://www.w3.org/2000/svg" version="1.1" width="1524px" height="1184px" style="shape-rendering:geometricPrecision; text-rendering:geometricPrecision; image-rendering:optimizeQuality; fill-rule:evenodd; clip-rule:evenodd" xmlns:xlink="http://www.w3.org/1999/xlink">
<g><path style="opacity:0.994" fill="#000000" d="M 1260.5,8.5 C 1263.78,8.21614 1266.94,8.54948 1270,9.5C 1348.39,209.342 1426.39,409.342 1504,609.5C 1506.28,616.996 1505.94,624.33 1503,631.5C 1501.44,633.359 1499.61,634.859 1497.5,636C 1365.95,679.849 1235.61,726.849 1106.5,777C 1038.88,804.644 973.213,836.31 909.5,872C 900.682,874.556 893.848,872.056 889,864.5C 842.15,698.937 782.483,538.27 710,382.5C 690.938,344.042 671.604,305.709 652,267.5C 648.876,256.915 652.376,249.415 662.5,245C 862.052,166.433 1061.39,87.5999 1260.5,8.5 Z"/></g>
<g><path style="opacity:1" fill="#f9913b" d="M 1255.5,56.5 C 1322.41,225.057 1388.24,394.057 1453,563.5C 1394.67,504.811 1332.51,450.977 1266.5,402C 1203.32,358.412 1134.99,324.912 1061.5,301.5C 1083.19,265.65 1107.02,231.317 1133,198.5C 1172.66,150.202 1213.49,102.869 1255.5,56.5 Z"/></g>
<g><path style="opacity:1" fill="#2cd3be" d="M 694.5,278.5 C 783.074,282.791 871.074,292.291 958.5,307C 977.918,310.85 997.251,315.017 1016.5,319.5C 967.489,414.703 934.989,515.369 919,621.5C 910.968,677.133 903.968,732.8 898,788.5C 844.958,613.757 776.958,445.091 694,282.5C 693.421,281.072 693.588,279.738 694.5,278.5 Z"/></g>
<g><path style="opacity:0.961" fill="#000000" d="M 279.5,901.5 C 303.193,899.393 325.86,903.227 347.5,913C 368.794,923.644 388.461,936.644 406.5,952C 441.333,982.833 474.167,1015.67 505,1050.5C 525.559,1071.73 546.725,1092.23 568.5,1112C 583.139,1124.33 599.139,1134.66 616.5,1143C 640.103,1151.83 662.77,1149.83 684.5,1137C 703.062,1125.45 719.562,1111.29 734,1094.5C 754.21,1070.29 772.877,1044.96 790,1018.5C 812.626,981.416 835.126,944.25 857.5,907C 865.941,902.792 873.441,903.959 880,910.5C 882.915,915.988 883.248,921.655 881,927.5C 855.172,973.168 827.839,1017.83 799,1061.5C 783.537,1083.41 766.87,1104.41 749,1124.5C 733.899,1140.28 717.066,1153.78 698.5,1165C 657.702,1186.02 618.035,1184.02 579.5,1159C 551.27,1139.12 525.104,1116.62 501,1091.5C 477.031,1065.86 452.698,1040.53 428,1015.5C 434.705,1076.58 412.538,1123.74 361.5,1157C 328.264,1175.34 293.264,1179.68 256.5,1170C 200.976,1151.46 168.476,1113.29 159,1055.5C 158.453,1042.14 158.453,1028.81 159,1015.5C 114.894,1065.26 74.2273,1117.59 37,1172.5C 28.9449,1180.06 20.6116,1180.4 12,1173.5C 7.87884,1167.34 7.54551,1161 11,1154.5C 49.9434,1098.21 91.9434,1044.21 137,992.5C 160.183,966.964 186.016,944.798 214.5,926C 234.689,913.553 256.355,905.387 279.5,901.5 Z M 292.5,932.5 C 345.409,935.92 379.575,962.92 395,1013.5C 403.875,1059.22 390.042,1096.38 353.5,1125C 313.5,1151 273.5,1151 233.5,1125C 192.76,1092.11 180.26,1050.61 196,1000.5C 214.359,958.237 246.526,935.571 292.5,932.5 Z"/></g>
</svg>
