<?xml version="1.0" encoding="UTF-8"?>
<!DOCTYPE svg PUBLIC "-//W3C//DTD SVG 1.1//EN" "http://www.w3.org/Graphics/SVG/1.1/DTD/svg11.dtd">
<svg xmlns="http://www.w3.org/2000/svg" version="1.1" width="1845px" height="1302px" style="shape-rendering:geometricPrecision; text-rendering:geometricPrecision; image-rendering:optimizeQuality; fill-rule:evenodd; clip-rule:evenodd" xmlns:xlink="http://www.w3.org/1999/xlink">
<g><path style="opacity:0.994" fill="#000000" d="M 1420.5,67.5 C 1423.78,67.2161 1426.94,67.5495 1430,68.5C 1508.39,268.342 1586.39,468.342 1664,668.5C 1666.28,675.996 1665.94,683.33 1663,690.5C 1661.44,692.359 1659.61,693.859 1657.5,695C 1525.95,738.849 1395.61,785.849 1266.5,836C 1198.88,863.644 1133.21,895.31 1069.5,931C 1060.68,933.556 1053.85,931.056 1049,923.5C 1002.15,757.937 942.483,597.27 870,441.5C 850.938,403.042 831.604,364.709 812,326.5C 808.876,315.915 812.376,308.415 822.5,304C 1022.05,225.433 1221.39,146.6 1420.5,67.5 Z"/></g>
<g><path style="opacity:1" fill="#fa913b" d="M 1415.5,115.5 C 1476.79,270.836 1537.62,426.503 1598,582.5C 1603.02,595.502 1607.68,608.502 1612,621.5C 1552.25,560.721 1488.09,505.555 1419.5,456C 1358.46,414.348 1292.46,382.515 1221.5,360.5C 1243.52,324.314 1267.69,289.648 1294,256.5C 1333.59,208.743 1374.09,161.743 1415.5,115.5 Z"/></g>
<g><path style="opacity:1" fill="#2cd3be" d="M 855.5,337.5 C 920.002,341.403 984.335,347.236 1048.5,355C 1091.74,360.282 1134.41,368.449 1176.5,379.5C 1132.54,462.878 1102.21,551.044 1085.5,644C 1073.67,711.49 1064.5,779.324 1058,847.5C 1004.95,672.737 936.946,504.071 854,341.5C 853.516,339.807 854.016,338.473 855.5,337.5 Z"/></g>
<g><path style="opacity:1" fill="#000000" d="M 464.5,864.5 C 537.036,860.67 589.536,891.003 622,955.5C 635.075,988.224 638.075,1021.89 631,1056.5C 622.595,1091.55 604.428,1120.39 576.5,1143C 627.225,1148.51 677.891,1154.51 728.5,1161C 754.585,1164.01 780.752,1165.84 807,1166.5C 835.651,1166.93 863.484,1162.43 890.5,1153C 919.797,1140.04 943.297,1120.2 961,1093.5C 972.618,1075.27 982.952,1056.27 992,1036.5C 1003.92,1008.41 1015.25,980.072 1026,951.5C 1028.87,948.296 1032.04,945.463 1035.5,943C 1041.5,942.333 1047.5,942.333 1053.5,943C 1065.07,949.171 1068.9,958.671 1065,971.5C 1050.16,1015.35 1031.83,1057.68 1010,1098.5C 1002.39,1110.44 994.391,1122.11 986,1133.5C 950.413,1178.38 903.913,1202.88 846.5,1207C 803.716,1209.66 761.049,1208.33 718.5,1203C 664.231,1196.09 609.898,1189.76 555.5,1184C 491.179,1178.83 427.179,1181.5 363.5,1192C 308.407,1201.29 253.74,1212.62 199.5,1226C 186.766,1228.89 177.933,1224.39 173,1212.5C 172.139,1206.41 172.473,1200.41 174,1194.5C 177.201,1190.96 180.701,1187.8 184.5,1185C 251.436,1167.95 319.103,1154.61 387.5,1145C 339.47,1106.28 319.636,1056.12 328,994.5C 338.215,938.284 369.381,898.451 421.5,875C 435.549,869.737 449.882,866.237 464.5,864.5 Z M 473.5,906.5 C 514.114,906.391 546.614,922.391 571,954.5C 601.218,1002.23 599.218,1048.57 565,1093.5C 553.339,1106.84 540.172,1118.34 525.5,1128C 488.456,1146.95 453.79,1143.28 421.5,1117C 388.699,1093.07 371.032,1060.74 368.5,1020C 374.716,955.292 409.716,917.458 473.5,906.5 Z"/></g>
</svg>
