<?xml version="1.0" encoding="UTF-8"?>
<!DOCTYPE svg PUBLIC "-//W3C//DTD SVG 1.1//EN" "http://www.w3.org/Graphics/SVG/1.1/DTD/svg11.dtd">
<svg xmlns="http://www.w3.org/2000/svg" version="1.1" width="1845px" height="1302px" style="shape-rendering:geometricPrecision; text-rendering:geometricPrecision; image-rendering:optimizeQuality; fill-rule:evenodd; clip-rule:evenodd" xmlns:xlink="http://www.w3.org/1999/xlink">
<g><path style="opacity:1" fill="#f4f4f4" d="M 1410.5,21.5 C 1420.17,21.3335 1429.84,21.5002 1439.5,22C 1453.07,25.2025 1463.57,32.7025 1471,44.5C 1476.92,56.5862 1482.25,68.9195 1487,81.5C 1561,272.167 1635,462.833 1709,653.5C 1709.67,656.167 1710.33,658.833 1711,661.5C 1711.67,673.167 1711.67,684.833 1711,696.5C 1706.09,716.412 1694.26,730.579 1675.5,739C 1543.95,782.849 1413.61,829.849 1284.5,880C 1225.62,904.108 1168.28,931.442 1112.5,962C 1112.06,971.222 1110.9,980.389 1109,989.5C 1094.12,1032.81 1076.12,1074.81 1055,1115.5C 1030.51,1160.33 996.675,1196.49 953.5,1224C 923.279,1240.64 890.946,1250.31 856.5,1253C 807.053,1255.86 757.72,1254.53 708.5,1249C 654.231,1242.09 599.898,1235.76 545.5,1230C 487.856,1225.57 430.523,1228.24 373.5,1238C 318.407,1247.29 263.74,1258.62 209.5,1272C 173.221,1278.77 146.721,1265.94 130,1233.5C 116.541,1192.16 128.708,1161.33 166.5,1141C 210.637,1130.11 254.97,1120.11 299.5,1111C 289.377,1090.68 283.211,1069.18 281,1046.5C 272.296,959.088 304.463,891.588 377.5,844C 417.687,821.578 460.687,813.245 506.5,819C 546.725,823.455 582.058,838.788 612.5,865C 668.565,916.318 690.732,979.818 679,1055.5C 676.409,1072.7 671.576,1089.2 664.5,1105C 711.628,1112.72 759.128,1117.88 807,1120.5C 829.461,1120.1 851.295,1116.27 872.5,1109C 891.648,1100.51 907.148,1087.68 919,1070.5C 935.493,1045.41 949.159,1018.74 960,990.5C 966.863,972.911 973.53,955.244 980,937.5C 983.949,928.231 989.449,920.064 996.5,913C 939.32,715.777 863.153,526.277 768,344.5C 758.28,315.547 764.447,290.714 786.5,270C 792.178,266.159 798.178,262.826 804.5,260C 1006.5,180.156 1208.5,100.656 1410.5,21.5 Z M 475.5,953.5 C 517.037,956.701 540.37,979.035 545.5,1020.5C 543.666,1036.51 537.833,1050.84 528,1063.5C 521.136,1070.7 513.97,1077.53 506.5,1084C 498.828,1088.83 490.495,1092 481.5,1093.5C 472.505,1092 464.172,1088.83 456.5,1084C 448.76,1077.05 440.927,1070.22 433,1063.5C 408.185,1030.53 410.352,999.36 439.5,970C 450.429,962.034 462.429,956.534 475.5,953.5 Z"/></g>
<g><path style="opacity:1" fill="#000000" d="M 1420.5,68.5 C 1423.45,68.2229 1426.28,68.5562 1429,69.5C 1433.11,79.8064 1437.61,89.973 1442.5,100C 1516.27,291.31 1590.44,482.477 1665,673.5C 1667.19,683.628 1663.69,690.794 1654.5,695C 1520.46,739.456 1387.79,787.456 1256.5,839C 1191.78,866.192 1128.78,896.858 1067.5,931C 1058.59,932.294 1052.42,928.794 1049,920.5C 990.544,713.458 911.878,514.458 813,323.5C 812.333,320.5 812.333,317.5 813,314.5C 815.5,310.667 818.667,307.5 822.5,305C 1022.05,226.433 1221.39,147.6 1420.5,68.5 Z"/></g>
<g><path style="opacity:1" fill="#fa913b" d="M 1415.5,115.5 C 1476.79,270.836 1537.62,426.503 1598,582.5C 1603.02,595.502 1607.68,608.502 1612,621.5C 1552.25,560.721 1488.09,505.555 1419.5,456C 1358.46,414.348 1292.46,382.515 1221.5,360.5C 1243.52,324.314 1267.69,289.648 1294,256.5C 1333.59,208.743 1374.09,161.743 1415.5,115.5 Z"/></g>
<g><path style="opacity:1" fill="#2cd3be" d="M 855.5,337.5 C 920.002,341.403 984.335,347.236 1048.5,355C 1091.74,360.282 1134.41,368.449 1176.5,379.5C 1132.54,462.878 1102.21,551.044 1085.5,644C 1073.67,711.49 1064.5,779.324 1058,847.5C 1004.95,672.737 936.946,504.071 854,341.5C 853.516,339.807 854.016,338.473 855.5,337.5 Z"/></g>
<g><path style="opacity:1" fill="#000000" d="M 464.5,864.5 C 537.036,860.67 589.536,891.003 622,955.5C 635.075,988.224 638.075,1021.89 631,1056.5C 622.595,1091.55 604.428,1120.39 576.5,1143C 627.225,1148.51 677.891,1154.51 728.5,1161C 754.585,1164.01 780.752,1165.84 807,1166.5C 835.651,1166.93 863.484,1162.43 890.5,1153C 919.797,1140.04 943.297,1120.2 961,1093.5C 972.618,1075.27 982.952,1056.27 992,1036.5C 1003.92,1008.41 1015.25,980.072 1026,951.5C 1028.87,948.296 1032.04,945.463 1035.5,943C 1041.5,942.333 1047.5,942.333 1053.5,943C 1065.07,949.171 1068.9,958.671 1065,971.5C 1050.16,1015.35 1031.83,1057.68 1010,1098.5C 1002.39,1110.44 994.391,1122.11 986,1133.5C 950.413,1178.38 903.913,1202.88 846.5,1207C 803.716,1209.66 761.049,1208.33 718.5,1203C 664.231,1196.09 609.898,1189.76 555.5,1184C 491.179,1178.83 427.179,1181.5 363.5,1192C 308.407,1201.29 253.74,1212.62 199.5,1226C 186.766,1228.89 177.933,1224.39 173,1212.5C 172.139,1206.41 172.473,1200.41 174,1194.5C 177.201,1190.96 180.701,1187.8 184.5,1185C 251.436,1167.95 319.103,1154.61 387.5,1145C 339.47,1106.28 319.636,1056.12 328,994.5C 338.215,938.284 369.381,898.451 421.5,875C 435.549,869.737 449.882,866.237 464.5,864.5 Z M 475.5,953.5 C 462.429,956.534 450.429,962.034 439.5,970C 410.352,999.36 408.185,1030.53 433,1063.5C 440.927,1070.22 448.76,1077.05 456.5,1084C 464.172,1088.83 472.505,1092 481.5,1093.5C 490.495,1092 498.828,1088.83 506.5,1084C 513.97,1077.53 521.136,1070.7 528,1063.5C 537.833,1050.84 543.666,1036.51 545.5,1020.5C 540.37,979.035 517.037,956.701 475.5,953.5 Z"/></g>
<g><path style="opacity:1" fill="#f4f5f4" d="M 473.5,906.5 C 514.114,906.391 546.614,922.391 571,954.5C 601.218,1002.23 599.218,1048.57 565,1093.5C 553.339,1106.84 540.172,1118.34 525.5,1128C 488.456,1146.95 453.79,1143.28 421.5,1117C 388.699,1093.07 371.032,1060.74 368.5,1020C 374.716,955.292 409.716,917.458 473.5,906.5 Z M 475.5,953.5 C 462.429,956.534 450.429,962.034 439.5,970C 410.352,999.36 408.185,1030.53 433,1063.5C 440.927,1070.22 448.76,1077.05 456.5,1084C 464.172,1088.83 472.505,1092 481.5,1093.5C 490.495,1092 498.828,1088.83 506.5,1084C 513.97,1077.53 521.136,1070.7 528,1063.5C 537.833,1050.84 543.666,1036.51 545.5,1020.5C 540.37,979.035 517.037,956.701 475.5,953.5 Z"/></g>
</svg>
